<?xml version="1.0" encoding="UTF-8"?>
<svg id="Layer_2" data-name="Layer 2" xmlns="http://www.w3.org/2000/svg" viewBox="0 0 1800.09 971.09">
  <defs>
    <style>
      .cls-1 {
        fill: #5d7d72;
        stroke: #5d7d72;
        stroke-miterlimit: 10.43;
        stroke-width: .09px;
      }
    </style>
  </defs>
  <g id="Layer_1-2" data-name="Layer 1">
    <g>
      <path class="cls-1" d="M892.33.05h2.32c2.59.47,5.29,1.24,7.25,3.12,3.85,3.56,4.7,9.47,3.38,14.36-1.35,4.08-5.52,6.01-8.81,8.28,1.2,10.02,1.16,20.14,1.43,30.22.97,73.99.14,147.99-.31,221.99-.12,11.38-1.14,22.8-.08,34.17.6,5.76,2.05,11.88,6.28,16.13,2.64,2.76,6.35,4.02,9.85,5.32-.01.67-.01,2-.02,2.67-14.11-.09-28.23.2-42.34-.15,1.51-3.01,4.98-3.61,7.56-5.32,4.65-3.06,9.24-7.76,8.8-13.79-.04-97.24.06-194.48-.05-291.73-4.52-3.18-8.08-8.52-7.06-14.26.51-6.04,5.97-10.5,11.8-11.01Z"/>
      <path class="cls-1" d="M910.5,29.13c9.28-4.07,20.06-4.92,29.63-1.3,12.85,4.61,22.58,14.8,30.75,25.36,4.68,5.61,8.57,12.01,14.25,16.7,6.7,5.34,15.69,5.08,23.8,5.62,14.67.96,30.37.68,43.55,8.15,10.08,6.78,19.78,17.09,19.72,30.03-11.37-4.62-24.01-7.17-36.19-4.65-16.14,3.19-29.57,14.19-45.88,16.8-7.97,1.33-16-.54-23.44-3.3-4.63-1.84-9.66-2.01-14.55-1.64-8.26.67-17.02,1.54-24.1,6.26-5.69,3.64-11.59,6.92-17.54,10.12,0-36.05,0-72.1,0-108.15Z"/>
      <path class="cls-1" d="M352.54,211.82c26.21-2.37,52.93.27,78.13,7.91,16.88,5.27,33.33,13.14,46.38,25.27,12.21,11.53,21.88,26.36,25.01,43.05,3.39,17.59-.17,35.62-5.53,52.44-2.71,8.38-7.1,16.08-11.31,23.78-6.09,10.77-14.41,20.09-23.26,28.66-10.41,9.87-21.82,18.97-34.85,25.13-10.56,5.15-21.11,10.31-31.66,15.49-26.89,11.96-56.27,17.44-85.49,19.79,3.46,14.78,10.33,28.42,16.77,42.07,7.05,14.11,13.06,28.81,21.76,42.04,16.95,26.34,37.95,50.05,61.7,70.45,14.63,12.66,31.28,22.72,48.58,31.28,10.34,5.24,20.62,10.7,31.49,14.79,20.4,7.97,42.1,11.78,63.7,14.81,12.66,1.67,25.29,4.16,38.12,3.95,11.33-.17,22.63,1.06,33.96,1.01,36.71-.06,73.09-5.91,109.17-12.12,59.85-10.65,119.01-24.84,178.85-35.54,53.12-9.64,106.91-16.46,160.96-17.03,42.79-.71,85.62,2.56,127.83,9.59,48.47,7.86,96.2,19.47,144.24,29.48,40.51,8.58,81.47,15.8,122.91,17.56,48.43,2.32,97.34-2.36,144.05-15.61,17.78-4.88,34.97-11.61,52.31-17.84,9.97-4.51,20.28-8.22,30.2-12.84-4.69,7.56-12.84,11.73-20.41,15.82-11.29,6.01-22.2,12.75-33.8,18.12-15.4,5.66-30.47,12.23-46.24,16.83-39.71,12.33-81.4,18.37-122.99,17.21-47.37-1.13-94.03-10.46-140.19-20.47-47.34-10.34-94.69-20.92-142.66-27.98-45.05-6.66-90.67-9.87-136.21-8.46-44.33,1.27-88.43,7.07-131.96,15.36-50.62,9.7-100.74,21.75-151.06,32.85-37.95,8.44-76.08,16.66-114.82,20.44-13.69,1.41-27.47.49-41.18,1.48-9.33.68-18.66-.46-27.99-.45-26.65-.31-53.31-3.79-78.93-11.25-17.29-5.07-34.38-10.98-50.88-18.24-18.55-8.51-37.06-17.33-54.14-28.58-26.7-17.37-48.89-40.73-68.68-65.47-9.83-13.03-17.32-27.6-24.87-42.01-8.26-16.13-15.9-32.58-22.68-49.38-4.33-10.28-9.3-20.6-10.14-31.89-3.29-.59-6.56-1.21-9.87-1.65-18.1,30.62-36.31,61.18-54.51,91.75-10.86,16.3-21.93,32.49-33.91,48-17.94,22.94-38.29,45.41-65.11,57.96-14.25,7.93-29.86,13.82-46.23,15.09-17.66,1.49-36.6-1.59-50.99-12.52-9.31-6.96-15.45-17.96-16.06-29.61v-4.51c.48-6.37,1.95-12.67,4.31-18.61,2.81-5.79,7.25-10.67,12.25-14.66,2.98-2.11,6.61-3.95,10.36-3.47,2.9.7,3.35,4.4,2.69,6.83-1.75,3.33-4.98,5.8-5.97,9.57-2.24,7.63-2.41,15.69-2.4,23.59-.03,8.19,4.67,15.77,11.16,20.52,9.52,7.06,22.03,9.16,33.61,7.55,10.9-1.6,21.53-6.07,29.97-13.2,8.1-7.56,16.35-14.97,24.33-22.65,9.72-10.1,18.72-21.01,25.93-33.06,22.42-35.58,44.85-71.16,67.27-106.75,21.61-34.68,43.96-68.9,65.24-103.79,16.17-26.11,33.29-51.97,55.08-73.8,12.03-12.67,26.51-22.73,41.6-31.4,6.9-3.91,14.31-6.9,21.99-8.87,4.88-1.08,10.26-2.07,15.03.02,2.79,1.16,3.67,4.27,4.77,6.8-10.42,2.8-20.76,6.73-29.27,13.52-11.61,8.7-20.33,20.4-30.1,30.96-14.43,17.44-24.98,37.61-37.88,56.13-9.5,15.24-18.68,30.67-28.12,45.94-6.08,9.61-13.18,18.81-16.63,29.8,7.49,0,15,.19,22.49-.08,9.1-.79,18.18-1.87,27.27-2.74,5.3-.59,10.7-.79,15.84-2.35,9.21-2.9,18.85-4.7,27.44-9.31,8.92-4.8,18.59-8.2,26.96-13.99,14.01-9.39,26.81-20.52,38.51-32.65,6.99-7.47,13.92-15.26,18.35-24.58,5.14-10.66,9.82-21.53,14.62-32.35,2.12-4.59,3.72-9.44,4.41-14.46,1.58-12.23.98-25.09-3.59-36.65-6.18-14.09-17.28-26.35-31.43-32.69-14.71-6.83-30.95-9.69-47.04-10.71-23.08-1.34-46.23,1.07-68.88,5.46-35.26,6.8-69.5,19.12-100.73,36.89-23.22,13.6-44.86,29.95-64.26,48.59-10.19,9.61-19.51,20.24-26.83,32.21-5.59,9.25-11.01,18.86-13.26,29.54-2.57,11.67-2.87,24.49,2.44,35.47,3.58,7.54,10.77,13.14,18.94,14.83,12.18,2.85,24.83-1.03,35.24-7.39,15.11-9.28,27.61-22.97,35.13-39.05,4.68-9.88,6.36-21.28,3.68-31.96-1.19-3.53-.34-7.15,1.14-10.44,3.88,1.42,7.93,3.08,10.52,6.47,5.16,6.47,5.55,15.31,4.79,23.21-1.57,13.21-6.08,26.26-14.08,36.99-10.65,14.45-25.69,26.12-43.23,30.75-18.19,5.09-38.99,5.18-55.65-4.66-12.61-7.43-18.92-22.03-20.09-36.14-2.35-18.09,2.82-36.49,12.24-51.9,7.4-13.35,16.22-25.99,27.03-36.83,5.9-5.78,11.58-11.85,18.12-16.92,16.56-11.94,32.66-24.66,50.63-34.48,27.86-15.51,58.02-26.92,89.17-33.75,20.3-4.54,40.7-8.85,61.38-11.31Z"/>
      <path class="cls-1" d="M1701.31,270.29c6.73-5.41,13.84-11.43,22.73-12.55,6.19-.86,12.07,1.84,17.25,4.93-1.95,11.28-10.57,19.58-18.25,27.39-5.32,4.73-9.25,10.71-14.29,15.69-3.17,3.19-5.8,6.84-8.66,10.29-22.1,26.34-44.23,52.71-64.73,80.33-5.42,8.72-12.1,16.52-18.16,24.77-5.88,7.91-11.57,15.95-16.82,24.29-8.07,13.19-16.46,26.18-24.55,39.35-5.29,9.44-11.65,18.4-15.19,28.72-2.22,6.37-5.09,12.73-5.3,19.58-.24,4.8,2.75,8.82,5.17,12.69,8.97-.08,18.14-1.6,25.95-6.27,7.27-4.35,14.45-8.87,21.53-13.52,12.54-8.97,24.19-19.11,36.28-28.69,4.23-2.82,3.84-8.48,6.79-12.24,4.27-5.58,7.33-11.95,11.29-17.75,8.93-13.41,20-25.4,32.76-35.25,13.24-9.89,27.39-19.34,43.71-23.16,12.45-3.07,26.42-3,37.73,3.66,4.52,2.52,7.9,7.16,8.27,12.41,1.23,13.93-5.21,27.39-14.5,37.42-11.86,13.03-27.08,22.54-42.98,29.87-16.16,7.25-33.5,12.59-51.32,13.08-2.13,8.64-3.98,17.64-2.41,26.55.64,4.18,1.96,8.48,5.06,11.53,6,6.38,14.78,9.5,23.41,9.87,12.2.56,24.28-2.82,35.28-7.92,6.66-3.08,12.68-7.34,19.02-11.03,16.32-10.15,27.08-26.79,42.62-37.89.31,1.34.66,2.68,1.05,4.02v1.99c-1.82,4.67-5.44,8.26-8.42,12.18-7.62,9.67-15.99,18.89-26.04,26.09-14.33,10.66-30.49,18.89-47.55,24.2-16.69,4.79-35.18,5.28-51.44-1.36-9.24-3.94-18.1-10.33-22.26-19.76-4.36-9.84-3.65-20.9-3-31.38-9.15,7.12-17.7,14.98-27.05,21.85-13.26,10.25-27.03,20.31-42.75,26.44-10.44,4.04-22.61,5.67-33.1.95-6.41-2.8-10.84-8.97-12.41-15.68-2.84-11.66.01-23.62,2.71-35.01-12.14,8.59-21.75,20.17-33.7,29-12.81,9.6-26.84,18-42.35,22.37-8.69,2.4-18.55,3.16-26.74-1.25-9-4.91-15.61-14.54-15.88-24.92-.4-9.61,3.4-18.66,4.73-28.06-17.5,12.38-34.38,25.67-52.48,37.18-7.85,3.75-15.28,8.37-23.38,11.59-9.88,4.15-20.08,8.3-30.93,8.72-9.85.45-19.69-3.08-27.36-9.19-4.91-3.9-7.45-10.2-7.41-16.39-.12-10.93,4.34-21.17,5.82-31.89-6.6,4.69-13.06,9.56-19.62,14.29-20.49,13.13-41.29,26.18-64.11,34.92-18.7,7.19-39.02,11.91-59.1,9-9.74-1.5-19.75-4.54-27.15-11.35-5.06-4.64-8.6-11.78-6.89-18.73.8-3.58,3.89-7.02,7.83-6.69,4.24.17,5.72,4.79,7.65,7.83,2.54,5.04,7,9.24,12.63,10.49,7.42,1.6,15.56,1.17,22.44-2.22,13.5-7.42,23.47-20.76,26.88-35.78,5.57-22.96.17-46.49-.35-69.68-5.3,3.95-10.21,8.39-14.91,13.02-14.32,14.08-27.9,28.9-42.19,43.02-9.75,9.96-20.58,18.76-31.57,27.31-14.92,11.77-29.89,24.04-47.62,31.38-13.17,6.79-27.94,12.28-42.99,10.1-8.84-1.15-17.41-6.38-21.12-14.69-4.64-10.11-2.97-21.79.41-32.01,1.77-5.97,5.78-10.87,8.54-16.37,3.05-6.07,7.56-11.21,11.43-16.75,7.43-10.21,14.92-20.36,22.32-30.59,3.44-5.09,6.96-11.44,4.92-17.73-2.35-6.01-9.1-8.07-14.71-9.76-5.95,4.62-10.18,10.92-15.29,16.36-4.49,4.86-8.76,9.91-13.03,14.97-14.04,16.25-30.04,30.64-45.2,45.82-13.77,13.06-28.55,25.15-44.64,35.25-10.26,6.55-21.52,11.27-32.31,16.83-11.44,6.08-24.45,8.59-37.29,9.29-11.09.4-22.7-.65-32.65-5.94-8.11-4.22-13.46-12.42-16.07-20.99-2.78-10-.3-20.37-.26-30.53-6.06-.13-12.14-.33-18.12-1.41-10.36-1.73-20.09-6.2-28.87-11.84-2.59-1.54-3.09-4.7-4.05-7.28-1.82,1.26-3.67,2.52-5.11,4.21-5.72,6.6-10.98,13.59-17.08,19.85-11.71,12.36-23.75,24.77-38.41,33.67-9.15,5.7-17.82,12.48-28.18,15.91-10.73,4.17-23.41,4.81-33.76-.73-7.77-4.1-11.37-13.08-12-21.44-1.04-13.95,3.89-27.39,9.33-39.98-2.27,1.23-4.55,2.46-6.58,4.06-9.01,6.98-17.99,14.01-27.01,20.99-11.12,8.73-23.04,16.36-34.72,24.32-13.92,8.91-29.6,16.49-46.43,16.79-9.02.03-19.1-1.82-25.11-9.19-4.11-4.32-4.91-10.46-5.89-16.08-.97-7.14,1.77-13.98,4.34-20.48,2.12-5.08,2.42-10.88,5.71-15.45,5.93-8.5,11.19-17.42,16.89-26.06,13.29-18.3,24.12-38.67,40.8-54.25,5.35-4.97,11.64-9.97,19.29-10.15,5.95,0,11.89,2,16.88,5.19-.03,4.51-1.64,9.01-4.69,12.37-3.15,3.53-6.81,6.59-9.72,10.34-12.2,15.23-24.17,30.66-35.34,46.67-7.67,11.45-15.92,22.92-19.81,36.32-1.69,5.49-3.88,11.46-1.98,17.18,1.4,3.9,5.58,5.93,9.5,6.25,7.64.64,15.25-1.67,22.03-5.09,4.58-2.41,9.52-4.16,13.8-7.14,5.39-3.66,11.35-6.44,16.41-10.58,16.91-13.12,33.87-26.17,50.8-39.26,5-3.91,10.31-7.54,14.46-12.42,11.94-13.82,20.06-30.4,31.27-44.76,6.45-7.63,14.86-15.11,25.3-15.82,6-.48,11.22,3.06,15.27,7.12-1.05,2.87-1.94,5.87-3.87,8.3-19.54,21.78-35.25,46.81-48.18,72.99-4.75,9.48-10.56,18.87-11.77,29.62-.79,5.46,1.4,11.64,6.5,14.27,5.12,2.6,11.13.98,16.12-1.16,10.12-4.53,18.81-11.62,27.12-18.85,13.55-12.13,25.98-25.5,37.4-39.64,2.1-2.57,4.47-4.91,6.58-7.46,2.42-2.84,2.66-6.72,3.3-10.23,1.55-10.84,4.25-21.58,8.78-31.57,2.03-4.53,4.85-8.63,7.14-13.02,2.91-5.51,7.82-9.62,12.92-13.03,4.1-2.6,8.81-4.93,13.82-4.48,4.63.44,7.96,4.86,8.33,9.3.32,4.31-1.15,8.52-2.87,12.41-9.07,19.05-24.82,33.97-34.03,52.91,3.9,2.38,7.41,5.34,10.35,8.86,2.77,3.43,7.03,5.06,11.27,5.75,9.08,1.53,18.34,1.48,27.53,1.6.52-3.39.86-7.02,3.06-9.82,5.83-7.71,9.77-16.63,15.67-24.29,10.28-13.63,23.14-25.16,36.89-35.19,8.85-7.1,19.02-12.48,29.72-16.21,10.12-3.46,21.27-5.43,31.8-2.62,7.85,2.12,15.58,7.37,18.06,15.46,2.7,8.93-.37,18.42-4.7,26.3-5.33,9.9-13.89,17.47-22.43,24.56-13.45,10.96-28.9,19.71-45.71,24.27-10.92,3.16-21.99,6.41-33.47,6.27-2.18,8.62-3.94,17.74-1.9,26.57,1.32,5.88,5,11.29,10.37,14.16,7.91,4.33,17.41,4.16,26.07,2.71,15.89-2.74,30.23-10.64,43.94-18.76,15.32-9.52,30.11-20.3,42.16-33.82,23.85-25.4,47.69-50.8,71.55-76.19-1.01-3.15-2.18-6.24-3.22-9.37-2.51-7.21-.19-15.14,3.63-21.44,5.09-7.89,13.05-13.97,21.97-16.9,6.87-2.31,13.88.75,19.61,4.45-.46,4.34-1.03,8.83-3.24,12.69-4.03,7.83-12.32,12.4-16.02,20.45,2.43,3.2,5.34,6.24,9.33,7.4,9.19,3.45,20.26,6.39,25.14,15.82,4.34,7.64.5,16.58-3.18,23.66-9.75,16.18-23.62,29.4-33.58,45.44-5.37,8.86-11.66,17.51-14.21,27.71-1.51,5.91-.79,13.02,3.94,17.32,4.12,3.57,10.05,3.33,15.08,2.31,10.53-2.37,20.09-7.72,29.25-13.26,6.83-4.37,13.69-8.78,19.81-14.13,26.91-25.41,53.81-50.86,80.73-76.27,14.63-12.88,23.89-30.71,38.7-43.42,5.1-3.71,11.12-6.87,17.55-7.16,5.43-.07,8.64,4.92,11.28,8.94-1.65,4.36-4.34,8.28-8.12,11.05-5.54,4.3-12,8.81-13.4,16.19-1.76,10.53,1.88,20.91,4.58,30.95,4.1,13.07,6.31,27.01,4.03,40.65-2.42,15.72-10.64,29.67-19.14,42.82,19.85-3.48,36.57-15.62,52.91-26.66,16.45-11.34,33.06-22.68,47.42-36.66,5.9-5.59,10.12-12.58,14.83-19.13,9.46-13.41,18.68-27.08,29.69-39.29,4.59-4.87,9.47-10.06,16.1-12.01,7.72-2.36,17.33-.7,22.28,6.15-.25,4.42-2.87,8.27-5.86,11.37-7.55,7.8-14.31,16.31-21.06,24.81-9.7,12.51-19.57,25-27.28,38.88-6.46,9.48-12.16,19.69-14.95,30.9-1.24,5.27-2,11.08.2,16.21,1.64,3.91,5.61,6.32,9.68,7.01,6.43,1.07,12.98-.17,19.23-1.77,10.54-2.65,19.82-8.56,28.89-14.33,15.48-11.16,30.88-22.44,46.33-33.64,4.58-3.37,9.42-6.48,13.3-10.7,6.88-7.28,12.44-15.66,18.58-23.55,4.58-6.29,10.18-11.72,15.7-17.17,7.54-7.31,15.59-14.34,25.03-19.09,6.15-3.16,12.32-6.28,18.46-9.46,12.32-6.75,26.28-10.28,40.27-10.96,9.49-.25,19.83.61,27.67,6.53,4.19,3,6,8.02,7.1,12.85,5.71-2.79,8.02-8.94,11.72-13.67,11.85-15.88,23.41-31.97,35.16-47.92,18.78-25.65,38.41-50.7,59.5-74.5,6.09-6.55,10.95-14.29,18.11-19.81ZM863.25,430.22c-15.08,12.34-28.13,27.22-38.34,43.81-4.2,6.27-8.77,12.44-11.07,19.72,12.62-.27,25.14-3.69,36.3-9.55,6.54-3.61,12.36-8.35,18.51-12.57,10.27-7.53,20.64-15.68,27.26-26.77,3.79-6.59,6.22-14.8,3.69-22.24-1.55-3.74-6.08-4.02-9.54-4.03-10.23-.48-19.09,5.66-26.81,11.63ZM1747.48,419.74c-4.87,1.03-8.67,4.42-12.86,6.84-15.11,10.69-27.14,25.01-38.36,39.57-6.27,8.57-12.65,17.36-16.01,27.55,8.87-.68,17.85-1.92,26.09-5.44,6.65-2.88,13.59-5.23,19.69-9.23,11.1-6.9,20.24-16.37,29.73-25.24,6.47-5.75,12.44-12.95,13.7-21.8.8-4.8-1.07-9.48-3.75-13.37-6.09.04-12.26-.22-18.23,1.12ZM1540.48,422.6c-10.1,2.23-19.45,7.03-27.93,12.85-11.59,7.87-21.13,18.22-30.9,28.14-11.98,12.77-22.12,27.2-30.65,42.46-4.26,8.11-8.51,16.67-9.03,25.97-.32,4.47,1.51,9.36,5.66,11.51,4.89,2.44,10.86,2.88,16.02,1,4.23-1.55,8.68-2.77,12.38-5.46,9.34-6.16,18.5-12.67,26.58-20.45,14.28-13.39,28.32-27.1,41.11-41.93,6.37-9.04,12.11-18.51,18.3-27.68,1.33-2.14,3.29-4.26,2.81-6.98-.28-6.22-.94-13.38-5.9-17.76-5.21-4.19-12.43-2.7-18.45-1.67Z"/>
      <path class="cls-1" d="M574.44,353.53c8.64-3.14,20.14.56,23.51,9.58,2.49,7.37-1.51,15.12-6.48,20.44-3.69,3.96-9.58,3.43-14.48,3.19-7.39-.62-13.47-7.27-13.86-14.59-.57-7.72,3.69-16.09,11.31-18.62Z"/>
      <path class="cls-1" d="M1405.49,355.63c5.99-1.29,12.28,1.26,16.59,5.41,2.98,3.5,3.63,8.49,3.21,12.94-1.34,11.21-15.05,18.52-25.19,13.88-7.73-3.71-10.54-14.22-7-21.73,2.35-5.05,6.85-9.28,12.39-10.5Z"/>
      <path class="cls-1" d="M1403.17,768.31c6-12.76,22.26-16.57,35.06-13.91,5.81,1.2,11.42,3.22,17.01,5.2-.48,6.6.8,13.42-.99,19.86-1.9-3.87-3.22-8.12-6.15-11.37-3.71-4.47-9.32-7.16-15.09-7.51-5.02-.37-10.62.34-14.4,3.97-3.96,3.87-4.68,10.08-3.26,15.23,1.17,4.07,4.74,6.8,8.31,8.77,6.28,3.42,13.01,5.99,19.09,9.82,6.46,3.98,12.54,9.11,16.06,15.97,4.17,8.07,3.88,18.49-1.46,25.98-5,7.19-13.39,11.31-21.84,12.87-11.76,2.14-24.11.03-34.82-5.15-.6-6.31-.12-12.65-.46-18.96-.11-1.56.11-3.07.67-4.53,2.55,6.22,5,12.87,10.4,17.25,7.01,6.12,17.67,7.15,26.08,3.56,7.28-3.34,8.68-12.97,6.1-19.81-2.8-6.85-9.62-10.66-15.8-14.01-8.11-4.13-16.5-8.7-21.88-16.29-5.6-7.65-6.58-18.35-2.63-26.94Z"/>
      <path class="cls-1" d="M510.33,754.89c1.76.06,3.53.13,5.31.2,9.38,25.23,22.72,48.74,32.73,73.71,2.2,5.11,3.61,10.59,6.45,15.41,2.02,3.5,6.4,3.84,9.97,4.44-.02,1.39-.02,2.79,0,4.21h-37.58c0-.79,0-2.37-.02-3.16,2.4-.61,5.06-.82,7.08-2.39,1.69-1.53.66-3.95.21-5.78-2.01-6.08-4.37-12.03-6.62-18.01-13.28-.18-26.57-.37-39.86-.55-2.53,6.37-5.85,12.48-7.46,19.2-.45,1.78-.65,4.15,1.15,5.3,2.36,1.56,5.31,1.64,8.01,2.22,0,1.04,0,2.1,0,3.17h-29.46c.01-1.42.01-2.83,0-4.23,2.87-.7,6.07-.93,8.46-2.86,2.22-1.95,3.36-4.76,4.61-7.36,12.32-27.85,24.68-55.68,37.01-83.52ZM508.2,778.13c-4.97,12.41-10.79,24.46-15.63,36.92,10.64.01,21.29.01,31.93,0-5.44-12.3-10.81-24.64-16.3-36.92Z"/>
      <path class="cls-1" d="M1130.2,754.9c1.86-.14,3.74-.27,5.63-.4,9.09,20.87,18.19,41.74,27.29,62.61,3.87,8.38,6.91,17.2,11.79,25.07,2.59,4.34,7.1,7.12,12.04,7.93.01.68.02,2.06.03,2.75h-37.27c.01-.7.02-2.09.02-2.78,2.77-.88,7.8-.99,7.64-4.96-1.49-7.76-5.76-14.59-8.4-21.97-13.08.08-26.16.14-39.23.21-2.61,7.22-5.74,14.29-7.77,21.69-.63,4.35,5.1,4.26,8,4.99,0,.7.01,2.11.02,2.82h-29.29c.01-.7.02-2.1.02-2.8,3-.81,6.32-1.37,8.62-3.65,2.47-2.44,3.82-5.7,5.24-8.81,11.86-27.57,23.74-55.13,35.62-82.7ZM1128.33,780.02c-4.82,12-11.18,23.31-15.89,35.36,10.28-.05,20.57-.09,30.86-.15-4.99-11.74-9.93-23.5-14.97-35.21Z"/>
      <path class="cls-1" d="M334.46,759.14c.04-1.1.04-2.19,0-3.26h69.26c.37,6.11,1.07,12.19,1.67,18.29-1.48.2-2.96.43-4.42.68-1.17-4.19-3.27-8.25-6.65-11.05-3.09-1.8-6.84-1.38-10.26-1.49-7.38.18-14.78-.23-22.15.28-.32,12.55-.07,25.1-.15,37.66,7.75-.05,15.5.1,23.25-.1,2.7-.23,5.87-.14,7.91-2.22,1.04-1.4,1.44-3.13,2.08-4.7,1.04-.02,2.09-.03,3.14-.02,0,7.37,0,14.74,0,22.11h-3.32c-.86-3.28-1.84-7.65-5.86-8.2-8.99-1.34-18.15-.38-27.21-.67.03,9.85-.06,19.71.04,29.56.21,3.58.17,7.68,2.74,10.51,2.52,2.37,6.2,2.49,9.41,3.15v3.19c-12.95-.01-25.89,0-38.83-.01,0-.51,0-1.53,0-2.04,2.9-.6,6.24-.99,8.15-3.55,3.09-4.02,3.11-9.38,3.23-14.21-.03-20.68.04-41.35-.04-62.03-.24-3.3.15-7.44-2.77-9.7-2.72-1.79-6.14-1.71-9.24-2.18Z"/>
      <path class="cls-1" d="M629.7,755.88c11.68,0,23.36-.01,35.04,0,0,.81,0,2.43-.02,3.23-2.7.56-5.97.38-8.02,2.53-1.54,2.14-1.3,4.94-1.41,7.44.04,23.67.03,47.33.01,71,.15,2.6-.17,5.86,2.13,7.68,2.14,1.42,4.85,1.42,7.3,1.94-.01,1.04-.01,2.09,0,3.16h-35.02c0-.79,0-2.37,0-3.16,2.79-.62,6.26-.44,8.26-2.82,1.47-2.32,1.13-5.24,1.28-7.84-.07-23.67,0-47.34-.03-71.01-.16-2.41.02-5.37-2.07-7.03-2.21-1.42-4.94-1.44-7.43-1.9,0-.8,0-2.42,0-3.22Z"/>
      <path class="cls-1" d="M739.75,755.88c15.1.11,30.21-.25,45.31.21,8.49.71,18,1.28,24.67,7.25,7.99,7.19,9.79,20.82,3.01,29.4-4.62,5.9-11.55,9.26-18.24,12.24,5.35,8.08,11.77,15.39,17.18,23.45,5.86,7.95,11.87,16.64,21.21,20.78,1.63.5,2.58,1.61,2.41,3.41-8.73-.43-18,.49-26.02-3.74-8.25-3.97-12.47-12.51-17.47-19.68-4.34-6.61-8.56-13.28-12.82-19.93-4.44.07-8.87.15-13.3.15.05,9.19-.07,18.38.05,27.56.2,3.21.17,7.23,3.13,9.28,3.16,1.9,7.01,1.84,10.56,2.34-.03,1.41-.03,2.83,0,4.26h-40.27v-4.25c2.85-.43,5.89-.41,8.54-1.72,2.1-1.11,2.1-3.78,2.18-5.82-.09-24.7-.12-49.39.01-74.09-.05-1.95-.12-4.54-2.22-5.43-2.52-.99-5.27-1.04-7.92-1.35.01-1.45.01-2.89,0-4.32ZM765.76,763.9c-.18,12.87,0,25.75-.06,38.62,7.56-.28,15.58.96,22.74-2.1,4.94-2.97,9.78-7.4,10.76-13.37,1.22-7.06-.55-15.22-6.47-19.76-6.68-5.34-15.69-5.35-23.81-5.2-1.17.1-3.4.01-3.16,1.81Z"/>
      <path class="cls-1" d="M886.53,758.87c.01-1.01.03-2,.06-2.99,13.04.03,26.09-.08,39.15.05-.83,3.45-5.26,2.34-7.72,3.95-3.67,1.44-3.64,5.92-2.61,9.1,5.28,19.21,14.18,37.15,20.39,56.04,7.66-23.43,18.9-45.5,26.42-68.98,1.68,0,3.37-.01,5.07,0,8.22,23.4,19.97,45.34,28.75,68.51,5.97-17.18,11.72-34.45,17.65-51.64,1.06-3.44,2.92-7.24,1.41-10.82-1.23-2.74-4.51-3.02-7.05-3.6-.01-.65-.02-1.96-.02-2.61,9.51,0,19.02-.01,28.54,0,0,.69.02,2.07.03,2.76-3.34.8-7.3,1.49-9.21,4.72-2.36,3.95-3.29,8.53-4.89,12.81-9.22,26.14-18.5,52.26-27.73,78.39-1.82-.01-3.62-.01-5.42,0-8.56-23.56-19.64-46.09-28.64-69.48-7.84,23.61-19.08,45.92-27.05,69.48-1.77-.01-3.54-.01-5.29.01-8.62-28.38-21.28-55.32-30.02-83.65-.98-2.92-1.74-6.02-3.62-8.5-1.95-2.53-5.34-2.83-8.2-3.55Z"/>
      <path class="cls-1" d="M1235.3,758.45c.02-.87.05-1.73.1-2.58,12.61.02,25.22,0,37.83.01v2.79c-2.63.81-6.45.41-7.86,3.27,6.96,13.84,15.71,26.72,23.48,40.13,5.65-9.67,12.34-18.72,17.63-28.6,1.54-3.4,4.07-6.62,4.21-10.46-2.07-2.42-5.55-2.23-8.4-2.84v-4.29h30.52c-.03,1.42-.03,2.85,0,4.29-4.18.59-9.07,1.24-11.39,5.28-8.36,13.52-18.5,25.91-25.97,39.99-1.46,2.61-2.03,5.6-2.02,8.58-.14,7-.32,14-.42,21.01.07,3.74-.04,7.78,1.94,11.12,1.59,2.65,4.89,3.09,7.61,3.9,0,.71.01,2.11.01,2.81h-37.63c0-.72,0-2.17,0-2.89,2.89-.77,6.49-.91,8.4-3.57,1.44-2.52,1.32-5.54,1.45-8.34.05-7.7.04-15.4.03-23.09.16-3.25-1.4-6.19-2.95-8.92-6.03-10.52-12.22-20.95-18.47-31.33-2.68-4.24-4.92-8.88-8.51-12.44-2.53-2.59-6.22-3.19-9.6-3.83Z"/>
      <path class="cls-1" d="M140.11,802.99h129.11v8.39h-129.11v-8.39Z"/>
      <path class="cls-1" d="M1539.51,802.99h133.19c-.02,2.79,0,5.59,0,8.39h-133.17c-.02-2.8-.02-5.6-.01-8.39Z"/>
      <path class="cls-1" d="M478.14,939.9c2.3-.01,4.6-.01,6.91,0v30.59c-2.46-.03-4.91.02-7.36.05-5.1-6.66-10.02-13.44-15.05-20.15v20.1c-2.31,0-4.61,0-6.9.01v-30.6c2.4-.01,4.81-.01,7.23,0,5.05,6.82,10.09,13.66,15.17,20.47,0-6.82,0-13.65,0-20.47Z"/>
      <path class="cls-1" d="M509.49,943.53c5.78-4.75,14.08-5.01,21.04-3.14,3.99.98,6.6,4.36,8.37,7.86-2.42.41-4.85.8-7.27,1.19-2.86-4.39-8.48-5.91-13.32-4.13-8.51,2.53-8.34,16.82-.15,19.67,4.41,1.75,9.17.22,13.3-1.57,0-1.4-.02-2.79,0-4.15-2.86.03-5.71-.05-8.56.01.02-1.74.02-3.47,0-5.18,5.37-.01,10.73,0,16.11,0-.02,4.01.3,8.05-.16,12.06-3.63,3.33-8.89,4.13-13.6,4.9h-4.43c-4.06-.55-8.28-1.56-11.41-4.34-6.7-5.76-6.79-17.53.09-23.18Z"/>
      <path class="cls-1" d="M646.05,942.02c5.17-3.25,11.91-3.37,17.6-1.5,3.64,1.12,5.68,4.53,7.29,7.74-2.22.39-4.43.77-6.64,1.15-2.23-3.39-6.09-5.67-10.23-4.6-10.13,1.2-10.26,18.5-.65,20.64,3.73,1,7.4-.57,10.74-2.07-.02-1.38-.04-2.76-.06-4.12-2.6-.01-5.19-.01-7.78,0,.02-1.74.02-3.46,0-5.17,4.89-.01,9.78,0,14.67-.01-.04,4.15.41,8.37-.3,12.49-3.53,2.73-8,3.86-12.33,4.48h-3.87c-3.22-.51-6.53-1.26-9.17-3.26-8.09-6.04-7.9-20.29.73-25.77Z"/>
      <path class="cls-1" d="M1288.84,941.86c7.35-3.57,16.69-3.49,23.86.52,8.51,4.71,9.38,18.27,1.91,24.31-3.37,2.88-7.84,3.92-12.13,4.36h-4.51c-4.6-.56-9.42-1.82-12.76-5.23-6.7-6.67-5.02-19.7,3.63-23.96ZM1295.39,945.5c-6.23,2.12-7.47,10.48-4.5,15.65,3.4,5.14,11.11,5.86,16.16,2.88,4.76-2.86,5.3-9.6,3.26-14.29-2.7-5.26-9.85-6.05-14.92-4.24Z"/>
      <path class="cls-1" d="M1421.54,939.77c6.18-.97,13.15-.46,18.24,3.56,5.67,4.36,6.65,12.85,3.8,19.09-2.7,5.66-9.11,8.23-15.04,8.63h-3.72c-4.59-.43-9.39-1.73-12.66-5.17-4.14-4.14-4.72-10.67-3.17-16.07,1.73-5.47,7.01-9.21,12.55-10.04ZM1422.31,945.33c-6.05,1.85-7.43,9.52-5.3,14.76,3.32,7.76,16.67,7.6,19.5-.47,1.12-3.81,1.1-8.44-1.49-11.66-3.09-3.53-8.48-3.98-12.71-2.63Z"/>
      <path class="cls-1" d="M332.2,939.9c5.64.1,11.3-.26,16.93.23,4.38.15,8.12,4.57,7.05,8.94-.31,2.22-2.16,3.64-3.67,5.1,1.64,1.08,3.62,1.97,4.49,3.87,2.4,4.64-.61,11.28-5.9,12.05-6.27.75-12.61.26-18.9.4v-30.59ZM338.39,944.99c0,2.34-.01,4.69,0,7.05,3.17-.05,6.39.25,9.54-.35,2.84-.57,3.29-5.13.62-6.24-3.31-.81-6.78-.38-10.16-.46ZM338.39,957.11v8.21c3.53-.08,7.11.3,10.6-.38,3.46-.9,3.24-6.7-.25-7.39-3.4-.69-6.91-.38-10.35-.44Z"/>
      <path class="cls-1" d="M379.82,939.9c6.38.2,12.83-.51,19.15.56,5.84,1.17,7.69,9.3,4.01,13.56-1.42,1.75-3.73,2.28-5.73,3.08,4.61,3.4,7.01,8.73,10.08,13.39-2.47,0-4.92,0-7.38.01-2.5-3.63-4.68-7.49-7.49-10.89-1.47-2.08-4.24-1.69-6.44-2.07-.01,4.31-.01,8.63,0,12.96-2.07-.01-4.14-.02-6.2-.01v-30.59ZM386.02,945.08c-.01,2.58,0,5.17,0,7.77,3.43-.1,6.94.31,10.32-.48,3.11-1.04,2.83-6.53-.49-7.05-3.26-.48-6.56-.22-9.83-.24Z"/>
      <path class="cls-1" d="M426.94,939.9c2.06-.01,4.12-.01,6.19,0v30.6c-2.07-.02-4.13-.02-6.19,0,0-10.21,0-20.4,0-30.6Z"/>
      <path class="cls-1" d="M559.29,939.9c2.06-.01,4.12-.01,6.19,0v30.6c-2.07-.02-4.13-.01-6.2-.01,0-10.2,0-20.39,0-30.59Z"/>
      <path class="cls-1" d="M589.88,939.9c2.33-.01,4.67-.01,7.01,0,4.91,6.83,9.8,13.67,14.71,20.49v-20.49c2.23-.01,4.46-.01,6.7,0v30.59c-2.42,0-4.83,0-7.24.01-4.82-6.71-9.65-13.41-14.48-20.11,0,6.7,0,13.4,0,20.11-2.23-.02-4.46-.01-6.69,0v-30.6Z"/>
      <path class="cls-1" d="M720.54,945.07c-.01-1.74,0-3.45,0-5.17h24.27c-.01,1.71-.01,3.44,0,5.17-3.01,0-6.02,0-9.02,0,0,8.47.01,16.94,0,25.42-2.07-.02-4.13-.02-6.19-.01,0-8.47-.01-16.94,0-25.41-3.02,0-6.05,0-9.06,0Z"/>
      <path class="cls-1" d="M764.74,939.9c2.48-.01,4.96-.01,7.45,0v12.05c4.83,0,9.66,0,14.5,0-.01-4.02-.01-8.04,0-12.05,2.47-.01,4.96-.01,7.45,0v30.6c-2.49-.01-4.98-.01-7.45-.01-.01-4.46-.01-8.91,0-13.37h-14.5c0,4.45,0,8.91,0,13.38-2.49-.02-4.97-.01-7.45-.01v-30.59Z"/>
      <path class="cls-1" d="M816.48,970.5c-.01-10.21,0-20.4,0-30.6h22.64c0,1.71,0,3.44,0,5.17-5.48,0-10.97,0-16.45,0-.01,2.25,0,4.51,0,6.78h15.3c-.01,1.71-.01,3.44,0,5.17h-15.3v8.29h17.05c-.01,1.71-.01,3.44-.01,5.18-7.74-.01-15.49-.01-23.23,0Z"/>
      <path class="cls-1" d="M890.03,939.9h23.51c0,1.72-.01,3.43.01,5.17-5.53,0-11.06,0-16.59,0-.01,2.41-.01,4.83,0,7.26,4.78-.01,9.55,0,14.34,0-.01,1.71-.01,3.43,0,5.17-4.78-.01-9.56,0-14.34-.01,0,4.33-.01,8.66,0,12.99-2.32,0-4.63,0-6.93.01v-30.6Z"/>
      <path class="cls-1" d="M928.42,970.49c4.12-10.2,8.25-20.39,12.37-30.58,2.24.03,4.49-.06,6.76-.05,4.35,10.17,8.54,20.42,12.83,30.63-2.33.01-4.65-.02-6.96,0-.91-2.33-1.83-4.64-2.74-6.96-4.27,0-8.53,0-12.79,0-.88,2.32-1.78,4.64-2.65,6.97-2.28-.01-4.56-.02-6.82-.01ZM939.85,958.36c2.91-.01,5.81-.01,8.73,0-1.47-3.78-2.95-7.55-4.42-11.32-1.45,3.77-2.88,7.54-4.31,11.32Z"/>
      <path class="cls-1" d="M981.27,939.9c2.06-.01,4.12-.01,6.2,0v30.6c-2.08-.02-4.14-.02-6.2-.01,0-10.2,0-20.39,0-30.59Z"/>
      <path class="cls-1" d="M1011.17,939.9c6.28.17,12.63-.46,18.88.5,5.83.94,7.94,8.85,4.56,13.26-1.4,1.99-3.89,2.6-6.03,3.43,4.64,3.38,7.02,8.74,10.09,13.4-2.47,0-4.93,0-7.38.01-2.55-3.7-4.75-7.65-7.66-11.07-1.5-1.89-4.14-1.53-6.24-1.89-.04,4.32-.03,8.63-.03,12.96-2.07-.02-4.14-.01-6.19-.01-.01-10.2,0-20.39,0-30.59ZM1017.36,945.08c-.01,2.58,0,5.17,0,7.77,3.41-.08,6.9.28,10.27-.46,3.22-1.04,2.87-6.72-.6-7.1-3.21-.41-6.46-.19-9.67-.21Z"/>
      <path class="cls-1" d="M1055.16,939.9c2.33-.01,4.68-.01,7.03,0,1.68,7,3.34,14,5.03,21,2.06-7,4.11-14,6.17-21,2.7,0,5.41-.01,8.13,0,1.97,7.12,3.92,14.24,5.9,21.36,1.73-7.12,3.43-14.24,5.15-21.36,2.28-.01,4.56-.01,6.86,0-2.71,10.2-5.43,20.4-8.14,30.6-2.44-.01-4.88-.02-7.31-.01-2.22-7.62-4.43-15.24-6.66-22.86-2.25,7.62-4.47,15.24-6.71,22.87-2.52-.01-5.01-.02-7.51,0-2.65-10.2-5.3-20.4-7.94-30.6Z"/>
      <path class="cls-1" d="M1115.76,970.49c4.29-10.2,8.59-20.4,12.89-30.59,2.36-.02,4.73,0,7.1,0,4.42,10.2,8.86,20.39,13.29,30.59-2.42,0-4.83,0-7.23.01-.96-2.34-1.93-4.66-2.88-6.98-4.44,0-8.88,0-13.31,0-.92,2.32-1.85,4.63-2.75,6.97-2.38-.02-4.75-.01-7.11-.01ZM1127.67,958.36c3.02-.01,6.05-.01,9.09,0-1.54-3.78-3.08-7.55-4.61-11.32-1.51,3.77-3,7.54-4.48,11.32Z"/>
      <path class="cls-1" d="M1163.53,939.91c2.4-.03,4.81,0,7.23,0,2.41,4.03,4.82,8.07,7.24,12.11,2.34-4.04,4.69-8.08,7.04-12.11,2.36-.01,4.72-.01,7.1,0-3.12,4.94-6.22,9.88-9.38,14.8-3.41,4.54-1.25,10.57-1.82,15.79-2.09,0-4.15,0-6.21,0-.12-4.3.3-8.63-.2-12.9-3.35-6.08-7.41-11.75-11-17.68Z"/>
      <path class="cls-1" d="M1238.55,945.07c-.02-1.74-.01-3.46.01-5.17h24.26c-.02,1.71-.01,3.44,0,5.17-3.01,0-6.02,0-9.01,0-.01,8.47-.01,16.94,0,25.41-2.08,0-4.15,0-6.2.01,0-8.48,0-16.95.01-25.42-3.04,0-6.06,0-9.07,0Z"/>
      <path class="cls-1" d="M1363.61,939.91c2.4-.03,4.81,0,7.23,0,2.41,4.03,4.82,8.07,7.24,12.1,2.35-4.03,4.7-8.07,7.05-12.1,2.35-.01,4.72-.01,7.1,0-3.55,5.81-7.45,11.43-10.83,17.34-.86,4.32-.2,8.84-.37,13.25-2.09-.01-4.16-.02-6.22-.01-.12-4.31.31-8.65-.2-12.93-3.37-6.06-7.41-11.73-11-17.65Z"/>
      <path class="cls-1" d="M1464.08,939.9c2.37-.01,4.74-.01,7.13,0,.1,6.71-.2,13.44.12,20.15-.34,7.15,12.87,8.01,13.41.96.48-7.02.06-14.08.2-21.11,2.36-.01,4.74-.01,7.13,0-.26,7.92.59,15.93-.59,23.8-1,5-6.42,7.02-10.95,7.35h-4.82c-4.82-.3-10.47-2.84-11.16-8.18-.96-7.61-.27-15.32-.47-22.97Z"/>
    </g>
  </g>
</svg>