<svg xmlns="http://www.w3.org/2000/svg" width="500" height="500" viewBox="0 0 500 500"><rect x="10" y="14" width="341" height="341" rx="21" fill="#306553"/><g fill="#FFFFFF" stroke="#FFFFFF" stroke-width="3" stroke-linejoin="round" stroke-linecap="round" transform="translate(-20.30,-55.96) scale(1.0326)"><path d="M373.812,451.222,320,262.88V171.754a40.207,40.207,0,0,0-32.781-39.338,48,48,0,1,0-78.052-25.935,39.954,39.954,0,0,0-24.051,24.871L177.8,153.3l-38.967,9.741L99.009,76.763l22.019-7.339h0a23.8,23.8,0,0,0,14.583-13.585,24.762,24.762,0,0,0-1.458-21.42,24.14,24.14,0,0,0-31.721-10.965L87.062,30.719A24.01,24.01,0,0,0,75.08,61.447L123.5,168.017A23.95,23.95,0,0,0,112,188.492V208a40.045,40.045,0,0,0,40,40h40v14.88L138.187,451.222A35.128,35.128,0,0,0,205.539,471.2L256,307.2l50.461,164a35.128,35.128,0,0,0,67.351-19.982ZM256,64a32,32,0,1,1-32,32A32.036,32.036,0,0,1,256,64ZM185.94,167.761a8,8,0,0,0,5.65-5.232l8.706-26.118a23.961,23.961,0,0,1,14.948-15.095,48.175,48.175,0,0,0,28.49,21.089c-6.993,11.921-21.849,32.125-46.447,42.064-2.159.667-23.314,6.816-69.287,7.471v-3.448a7.99,7.99,0,0,1,6.06-7.762ZM93.9,45.185,109.27,37.92a7.886,7.886,0,0,1,3.378-.757,8.051,8.051,0,0,1,7.2,4.412s2.736,4.22.986,8.141a8.112,8.112,0,0,1-4.861,4.528h0L92.589,62.038,89.9,55.428A8,8,0,0,1,93.9,45.185ZM355.307,472.391a19.128,19.128,0,0,1-33.553-5.893L263.646,277.647a8,8,0,0,0-15.292,0L190.246,466.5a19.128,19.128,0,0,1-36.674-10.88L207.692,266.2A8.013,8.013,0,0,0,208,264V247.35c15.957-2.144,52.287-11.358,78.656-50.912a8,8,0,0,0-13.312-8.876c-29.068,43.6-71.541,44.424-73.37,44.438H152a24.028,24.028,0,0,1-24-24v-.061c50.98-.709,73.55-8.023,74.53-8.349.149-.05.295-.1.441-.162,33.732-13.493,51.458-42.3,57.762-54.67L283.4,148A24.117,24.117,0,0,1,304,171.754V264a8.013,8.013,0,0,0,.308,2.2l54.12,189.419A18.975,18.975,0,0,1,355.307,472.391ZM256,432a24,24,0,0,0-8,46.624V488a8,8,0,0,0,16,0v-9.376A24,24,0,0,0,256,432Zm0,32a8,8,0,1,1,8-8A8.009,8.009,0,0,1,256,464Z"/></g></svg>